<?xml version="1.0" encoding="utf-8"?>
<!-- Generator: Adobe Illustrator 21.0.2, SVG Export Plug-In . SVG Version: 6.00 Build 0)  -->
<svg version="1.1" id="Layer_1" xmlns="http://www.w3.org/2000/svg" xmlns:xlink="http://www.w3.org/1999/xlink" x="0px" y="0px"
	 width="50px" height="50px" viewBox="0 0 50 50" style="enable-background:new 0 0 50 50;" xml:space="preserve">
<style type="text/css">
	.st0{fill:#FFFFFF;}
</style>
<g>
	<path id="path-1" class="st0" d="M29.2,18.9c0.4-0.4,0.4-1.2,0-1.6s-1.2-0.4-1.6,0l-6.8,6.9c-0.4,0.4-0.4,1.2,0,1.6l6.8,6.9
		c0.4,0.4,1.2,0.4,1.6,0c0.4-0.4,0.4-1.2,0-1.6l-6-6L29.2,18.9z"/>
</g>
<g id="EN-cards">
	<g id="_x30_01-basic:-messengers" transform="translate(-71.000000, -17.000000)">
		<g id="icon-go-back" transform="translate(75.500000, 25.000000) scale(-1, 1) translate(-75.500000, -25.000000) ">
			<path id="path-1_1_" d="M50.8,35.9c-0.4-0.4-0.4-1.2,0-1.6s1.2-0.4,1.6,0l6.8,6.9c0.4,0.4,0.4,1.2,0,1.6l-6.8,6.9
				c-0.4,0.4-1.2,0.4-1.6,0c-0.4-0.4-0.4-1.2,0-1.6l6-6L50.8,35.9z"/>
		</g>
	</g>
</g>
</svg>
