<?xml version="1.0" encoding="utf-8"?>
<!-- Generator: Adobe Illustrator 23.0.1, SVG Export Plug-In . SVG Version: 6.00 Build 0)  -->
<svg version="1.1" id="Layer_1" xmlns="http://www.w3.org/2000/svg" xmlns:xlink="http://www.w3.org/1999/xlink" x="0px" y="0px"
	 viewBox="0 0 599 83" style="enable-background:new 0 0 599 83;" xml:space="preserve">
<style type="text/css">
	.st0{fill:#262626;}
	.st1{font-family:'GoogleSans-Bold';}
	.st2{font-size:88px;}
	.st3{letter-spacing:-1;}
	.st4{fill:#3E9920;}
</style>
<g>
	<text transform="matrix(1 0 0 1 122.6235 74)"><tspan x="0" y="0" class="st0 st1 st2">g</tspan><tspan x="54.9" y="0" class="st0 st1 st2 st3">r</tspan><tspan x="91.2" y="0" class="st0 st1 st2">ad</tspan><tspan x="195.4" y="0" class="st0 st1 st2">e2</tspan></text>
	<text transform="matrix(1 0 0 1 418.3022 74)"><tspan x="0" y="0" class="st4 st1 st2">p</tspan><tspan x="54.3" y="0" class="st4 st1 st2">l</tspan><tspan x="76.8" y="0" class="st4 st1 st2">a</tspan><tspan x="125.4" y="0" class="st4 st1 st2">y</tspan></text>
	<path class="st0" d="M78.7,38.3H55V62c0,21.1,25.6,31.7,40.5,16.8C110.4,63.9,99.9,38.3,78.7,38.3"/>
	<path class="st4" d="M129.9-15.5H78.5C65.5-15.5,55-4.9,55,8v24h51.2c13.1,0,23.7-10.6,23.7-23.7V-15.5z"/>
</g>
</svg>
