<svg id="bdd8f934-4f95-4f9c-bffe-5da383460282" data-name="Layer 1" xmlns="http://www.w3.org/2000/svg" viewBox="0 0 167 44"><title>logo_small</title><g style="isolation:isolate"><g style="isolation:isolate"><path d="M28.1,38a5.44,5.44,0,0,1-2.18-2.65L29,34.06a3.31,3.31,0,0,0,3.14,2.07,3.31,3.31,0,0,0,2.5-1,3.81,3.81,0,0,0,.92-2.74v-1h-.2a4.05,4.05,0,0,1-1.6,1.32,5.38,5.38,0,0,1-2.25.45,5.69,5.69,0,0,1-3-.82A6.15,6.15,0,0,1,26.35,30a7.12,7.12,0,0,1-.83-3.51A7.06,7.06,0,0,1,26.35,23a6.08,6.08,0,0,1,2.22-2.33,5.7,5.7,0,0,1,3-.83,5.38,5.38,0,0,1,2.25.46,3.89,3.89,0,0,1,1.6,1.32h.2V20.27h3.2v12a7.47,7.47,0,0,1-.82,3.6,5.64,5.64,0,0,1-2.3,2.34,7.13,7.13,0,0,1-3.5.82A7.06,7.06,0,0,1,28.1,38Zm6.51-8.77a3.58,3.58,0,0,0,1-2.67,3.59,3.59,0,0,0-1-2.7,3.51,3.51,0,0,0-4.81,0,3.61,3.61,0,0,0-1,2.69,3.59,3.59,0,0,0,1,2.68,3.31,3.31,0,0,0,2.41,1A3.25,3.25,0,0,0,34.61,29.2Z" fill="#262626"/></g><g style="isolation:isolate"><path d="M42,20.27h3.11V22h.21a3.79,3.79,0,0,1,1.49-1.51,4.4,4.4,0,0,1,2.23-.59,4.45,4.45,0,0,1,1.62.28v3.32a11.26,11.26,0,0,0-1.15-.37,4,4,0,0,0-1-.11,2.83,2.83,0,0,0-2.33,1.06,4.11,4.11,0,0,0-.86,2.69v6.43H42Z" fill="#262626"/></g><g style="isolation:isolate"><path d="M53.07,32.4a4.08,4.08,0,0,1-1.31-3.16A3.88,3.88,0,0,1,52.44,27a4.37,4.37,0,0,1,1.88-1.52A6.28,6.28,0,0,1,57,24.91a8.93,8.93,0,0,1,3.42.58v-.56a2.1,2.1,0,0,0-.8-1.72,3.24,3.24,0,0,0-2.14-.66,3.93,3.93,0,0,0-1.76.42,4.17,4.17,0,0,0-1.41,1.1L52.14,22.4a6.27,6.27,0,0,1,2.35-1.88,7.26,7.26,0,0,1,3.09-.66,6.64,6.64,0,0,1,4.52,1.37,5.07,5.07,0,0,1,1.54,4v8H60.37V31.88h-.2a4.49,4.49,0,0,1-1.53,1.24,5.31,5.31,0,0,1-5.57-.72Zm6.45-2.31a3.09,3.09,0,0,0,.85-2.17,6.35,6.35,0,0,0-2.71-.61c-1.72,0-2.58.65-2.58,1.93a1.64,1.64,0,0,0,.55,1.28,2.34,2.34,0,0,0,1.6.49A2.93,2.93,0,0,0,59.52,30.09Z" fill="#262626"/><path d="M69,32.73a6.24,6.24,0,0,1-2.25-2.44,8,8,0,0,1,0-7.11A6.17,6.17,0,0,1,69,20.74a6,6,0,0,1,3.18-.88,4.65,4.65,0,0,1,2.33.57A4.18,4.18,0,0,1,76,21.84h.2L76,20v-5H79.3V33.19H76.21V31.65H76A3.92,3.92,0,0,1,74.48,33a4.89,4.89,0,0,1-2.35.56A6,6,0,0,1,69,32.73Zm5.49-2.68a3.54,3.54,0,0,0,1.29-1.34,4.32,4.32,0,0,0,0-4,3.51,3.51,0,0,0-1.29-1.33A3.47,3.47,0,0,0,72.69,23a3.39,3.39,0,0,0-1.72.46,3.53,3.53,0,0,0-1.3,1.33,4.32,4.32,0,0,0,0,4A3.56,3.56,0,0,0,71,30.05a3.31,3.31,0,0,0,1.72.48A3.39,3.39,0,0,0,74.44,30.05Z" fill="#262626"/></g><g style="isolation:isolate"><path d="M85.08,32.71a6.37,6.37,0,0,1-2.42-2.44,7.41,7.41,0,0,1,0-6.95A6.78,6.78,0,0,1,85,20.8a6.42,6.42,0,0,1,3.4-.94,6.6,6.6,0,0,1,3.45.87,5.64,5.64,0,0,1,2.19,2.35,7.33,7.33,0,0,1,.75,3.32,8.09,8.09,0,0,1-.08,1.12H85a3.65,3.65,0,0,0,1.23,2.34,3.6,3.6,0,0,0,2.35.8,3.57,3.57,0,0,0,3.27-1.83l2.68,1.32a6.47,6.47,0,0,1-6,3.45A6.88,6.88,0,0,1,85.08,32.71Zm6.54-7.55a2.48,2.48,0,0,0-.44-1.2,3.08,3.08,0,0,0-1.09-1,3.3,3.3,0,0,0-1.63-.39,3.11,3.11,0,0,0-2,.69,3.91,3.91,0,0,0-1.23,1.89Z" fill="#262626"/><path d="M97.07,30.18q5.28-5.22,6.31-6.36a8.38,8.38,0,0,0,1.26-1.65,3.19,3.19,0,0,0,.34-1.5,1.94,1.94,0,0,0-.66-1.49,2.46,2.46,0,0,0-1.75-.61,2.41,2.41,0,0,0-1.72.61,3.35,3.35,0,0,0-.94,1.52l-3-1.24a5.46,5.46,0,0,1,1-1.92A5.63,5.63,0,0,1,99.88,16a6.17,6.17,0,0,1,2.74-.59,6.56,6.56,0,0,1,3,.67,5,5,0,0,1,2,1.83,4.85,4.85,0,0,1,.71,2.57,7.76,7.76,0,0,1-2.74,5.5l-4.13,4.11.08.15h7v2.91H97.07Z" fill="#262626"/></g></g><g style="isolation:isolate"><g style="isolation:isolate"><path d="M111.28,20.27h3.12v1.57h.2a4.22,4.22,0,0,1,1.54-1.41,4.72,4.72,0,0,1,2.34-.57,6,6,0,0,1,3.18.88,6.08,6.08,0,0,1,2.24,2.44,7.64,7.64,0,0,1,.81,3.55,7.59,7.59,0,0,1-.81,3.56,6.14,6.14,0,0,1-2.24,2.44,6,6,0,0,1-3.18.87,4.89,4.89,0,0,1-2.35-.56,3.92,3.92,0,0,1-1.53-1.39h-.2l.2,1.82v5.2h-3.32Zm8.36,9.78a3.54,3.54,0,0,0,1.29-1.34,4.25,4.25,0,0,0,0-4,3.51,3.51,0,0,0-1.29-1.33,3.5,3.5,0,0,0-3.47,0,3.51,3.51,0,0,0-1.29,1.33,4.32,4.32,0,0,0,0,4,3.54,3.54,0,0,0,1.29,1.34,3.38,3.38,0,0,0,3.47,0Z" fill="#3e9920"/></g><g style="isolation:isolate"><path d="M127,15.05h3.32V33.19H127Z" fill="#3e9920"/></g><g style="isolation:isolate"><path d="M134.08,32.4a4.09,4.09,0,0,1-1.32-3.16,3.89,3.89,0,0,1,.69-2.28,4.34,4.34,0,0,1,1.87-1.52,6.36,6.36,0,0,1,2.64-.53,9,9,0,0,1,3.42.58v-.56a2.13,2.13,0,0,0-.8-1.72,3.26,3.26,0,0,0-2.14-.66,3.9,3.9,0,0,0-1.76.42,4.07,4.07,0,0,0-1.41,1.1l-2.13-1.67a6.3,6.3,0,0,1,2.36-1.88,7.26,7.26,0,0,1,3.09-.66,6.61,6.61,0,0,1,4.51,1.37,5.08,5.08,0,0,1,1.55,4v8h-3.27V31.88h-.2a4.44,4.44,0,0,1-1.54,1.24,5.3,5.3,0,0,1-5.56-.72Zm6.45-2.31a3.09,3.09,0,0,0,.85-2.17,6.38,6.38,0,0,0-2.71-.61c-1.73,0-2.59.65-2.59,1.93a1.64,1.64,0,0,0,.56,1.28,2.32,2.32,0,0,0,1.6.49A3,3,0,0,0,140.53,30.09Z" fill="#3e9920"/></g><g style="isolation:isolate"><path d="M151.52,32.59l-5.44-12.32h3.77l3.35,8h.2l3.22-8h3.7l-8,18.4h-3.58Z" fill="#3e9920"/></g></g><path d="M12,22.91H5.13v6.83A6.83,6.83,0,1,0,12,22.91" fill="#262626"/><path d="M26.7,7.42H11.89a6.77,6.77,0,0,0-6.76,6.77V21.1H19.87a6.82,6.82,0,0,0,6.83-6.83Z" fill="#3e9920"/></svg>