<?xml version="1.0" encoding="UTF-8"?>
<svg width="17px" height="90px" viewBox="0 0 17 90" version="1.1" xmlns="http://www.w3.org/2000/svg" xmlns:xlink="http://www.w3.org/1999/xlink">
    <!-- Generator: sketchtool 52.2 (67145) - http://www.bohemiancoding.com/sketch -->
    <title>04EDBF4A-C7EB-452E-9407-6292792FB9A5</title>
    <desc>Created with sketchtool.</desc>
    <g id="corporate-website-EN" stroke="none" stroke-width="1" fill="none" fill-rule="evenodd">
        <g id="page-(mobile)" transform="translate(-179.000000, -3405.000000)" fill="#000000">
            <g id="icon-arrow-acquire-manage" transform="translate(187.500000, 3450.000000) scale(-1, 1) translate(-187.500000, -3450.000000) translate(179.000000, 3405.000000)">
                <path d="M15.3005787,79.0260578 C14.0451122,80.5100779 12.3463668,83.1621138 10.8906148,84.2481285 C10.4016825,84.8291364 9.91275009,85.4111442 9.42308138,85.9921521 C9.20070551,85.7901494 8.99821093,85.5761465 8.80381613,85.3571435 C19.2930355,58.4347789 16.8815091,22.4832921 0.969853026,0.248990978 C0.436003674,-0.496019111 -0.320221545,0.594995663 0.145147821,1.36900614 C13.9619054,24.3293171 17.5545274,56.0887472 7.64481078,82.7091076 L6.86428621,78.0780449 C6.61982002,76.6250253 4.9299107,76.9430296 4.95421005,78.4290497 C4.99986337,81.2510879 5.39380738,83.6151199 6.18979517,85.8511502 L6.34737277,86.7781627 C6.42174351,87.2161687 6.65369184,87.5011725 6.92908448,87.6331743 C7.2361399,88.2941833 7.57044004,88.9531922 7.95628426,89.6162012 C8.29942054,90.2062092 8.98127502,90.043207 9.3413472,89.6162012 C11.7904271,86.7151619 14.239507,83.8121226 16.6819599,80.9010832 C17.6303709,79.7730679 16.2453079,77.9100427 15.3005787,79.0260578 Z" id="Path"></path>
            </g>
        </g>
    </g>
</svg>