<svg id="a548f6e3-66d0-4510-8477-8b76014cc9ce" data-name="Layer 1" xmlns="http://www.w3.org/2000/svg" viewBox="0 0 179 44"><title>logo</title><g style="isolation:isolate"><g style="isolation:isolate"><path d="M28.07,38.75a6.06,6.06,0,0,1-2.42-3l3.46-1.41a3.92,3.92,0,0,0,6.27,1.24,4.22,4.22,0,0,0,1-3V31.46h-.22a4.38,4.38,0,0,1-1.77,1.47,5.92,5.92,0,0,1-2.51.51,6.36,6.36,0,0,1-3.31-.92,6.75,6.75,0,0,1-2.46-2.59A7.92,7.92,0,0,1,25.2,26a7.92,7.92,0,0,1,.93-3.9,6.75,6.75,0,0,1,2.46-2.59,6.36,6.36,0,0,1,3.31-.92,5.92,5.92,0,0,1,2.51.51,4.38,4.38,0,0,1,1.77,1.47h.22V19.07H40V32.45a8.4,8.4,0,0,1-.9,4,6.23,6.23,0,0,1-2.56,2.6A7.93,7.93,0,0,1,32.6,40,7.93,7.93,0,0,1,28.07,38.75ZM35.31,29a4,4,0,0,0,1.09-3,4,4,0,0,0-1.08-3A3.67,3.67,0,0,0,32.66,22,3.72,3.72,0,0,0,30,23a4,4,0,0,0-1.09,3A4,4,0,0,0,30,29a3.72,3.72,0,0,0,2.68,1.06A3.66,3.66,0,0,0,35.31,29Z" fill="#262626"/></g><g style="isolation:isolate"><path d="M43.55,19.07H47V21h.22a4.31,4.31,0,0,1,1.66-1.68,4.82,4.82,0,0,1,2.48-.66,5.15,5.15,0,0,1,1.8.31v3.69a12.07,12.07,0,0,0-1.28-.41,4.91,4.91,0,0,0-1.11-.12A3.15,3.15,0,0,0,48.2,23.3a4.57,4.57,0,0,0-1,3v7.16H43.55Z" fill="#262626"/></g><g style="isolation:isolate"><path d="M55.82,32.55A4.52,4.52,0,0,1,54.35,29a4.39,4.39,0,0,1,.76-2.53,4.88,4.88,0,0,1,2.09-1.69,7,7,0,0,1,2.93-.59,9.84,9.84,0,0,1,3.8.65v-.62A2.38,2.38,0,0,0,63,22.34a3.6,3.6,0,0,0-2.38-.73,4.37,4.37,0,0,0-2,.46,4.54,4.54,0,0,0-1.56,1.23l-2.36-1.86a6.82,6.82,0,0,1,2.61-2.08,8.08,8.08,0,0,1,3.44-.74,7.29,7.29,0,0,1,5,1.53,5.59,5.59,0,0,1,1.72,4.44v8.85H63.93V32H63.7A4.75,4.75,0,0,1,62,33.35a5.85,5.85,0,0,1-6.18-.8ZM63,30a3.46,3.46,0,0,0,1-2.41,7,7,0,0,0-3-.68C59,26.9,58,27.62,58,29a1.85,1.85,0,0,0,.62,1.43,2.63,2.63,0,0,0,1.78.54A3.29,3.29,0,0,0,63,30Z" fill="#262626"/><path d="M73.46,32.92A6.85,6.85,0,0,1,71,30.21,8.31,8.31,0,0,1,70,26.26a8.39,8.39,0,0,1,.91-4,6.78,6.78,0,0,1,2.51-2.71,6.63,6.63,0,0,1,3.53-1,5.21,5.21,0,0,1,2.59.64,4.67,4.67,0,0,1,1.72,1.56h.23l-.23-2V13.27H85V33.44H81.53V31.72H81.3a4.36,4.36,0,0,1-1.7,1.55,5.41,5.41,0,0,1-2.61.62A6.71,6.71,0,0,1,73.46,32.92Zm6.1-3A3.8,3.8,0,0,0,81,28.45a4.73,4.73,0,0,0,0-4.39,3.81,3.81,0,0,0-3.38-2,3.73,3.73,0,0,0-1.91.52,3.87,3.87,0,0,0-1.44,1.48,4.81,4.81,0,0,0,0,4.39,3.9,3.9,0,0,0,1.44,1.49,3.66,3.66,0,0,0,1.91.54A3.72,3.72,0,0,0,79.56,29.94Z" fill="#262626"/></g><g style="isolation:isolate"><path d="M91.39,32.9a7,7,0,0,1-2.69-2.72,8.15,8.15,0,0,1,0-7.71,7.28,7.28,0,0,1,2.65-2.8,7,7,0,0,1,3.77-1.05,7.33,7.33,0,0,1,3.83,1,6.29,6.29,0,0,1,2.44,2.62,8.2,8.2,0,0,1,.83,3.69,8.32,8.32,0,0,1-.09,1.24H91.33a4,4,0,0,0,1.37,2.6,3.93,3.93,0,0,0,2.6.89,4.13,4.13,0,0,0,2.18-.55,4,4,0,0,0,1.45-1.48l3,1.47a7.21,7.21,0,0,1-6.68,3.83A7.56,7.56,0,0,1,91.39,32.9Zm7.26-8.39a2.89,2.89,0,0,0-.49-1.34A3.59,3.59,0,0,0,97,22.07a3.66,3.66,0,0,0-1.82-.43,3.5,3.5,0,0,0-2.27.77,4.35,4.35,0,0,0-1.36,2.1Z" fill="#262626"/><path d="M104.7,30.08q5.86-5.79,7-7.06a9.14,9.14,0,0,0,1.39-1.83,3.59,3.59,0,0,0,.38-1.66,2.18,2.18,0,0,0-.73-1.67,2.76,2.76,0,0,0-1.94-.67,2.72,2.72,0,0,0-1.92.67,3.69,3.69,0,0,0-1,1.69l-3.32-1.38a5.72,5.72,0,0,1,1.14-2.12,6.15,6.15,0,0,1,2.15-1.68,6.86,6.86,0,0,1,3-.65,7.1,7.1,0,0,1,3.35.75,5.56,5.56,0,0,1,2.23,2,5.4,5.4,0,0,1,.79,2.86q0,3.12-3,6.11Q113,26.67,109.6,30l.09.17h7.8v3.24H104.7Z" fill="#262626"/></g></g><g style="isolation:isolate"><g style="isolation:isolate"><path d="M120.49,19.07H124v1.75h.23a4.67,4.67,0,0,1,1.72-1.56,5.21,5.21,0,0,1,2.59-.64,6.68,6.68,0,0,1,6,3.69,8.51,8.51,0,0,1,.91,4,8.43,8.43,0,0,1-.91,3.95,6.65,6.65,0,0,1-6,3.68,5.41,5.41,0,0,1-2.61-.62,4.36,4.36,0,0,1-1.7-1.55H124l.23,2v5.77h-3.69Zm9.29,10.87a3.9,3.9,0,0,0,1.44-1.49,4.81,4.81,0,0,0,0-4.39,3.87,3.87,0,0,0-1.44-1.48,3.84,3.84,0,0,0-3.86,0,3.84,3.84,0,0,0-1.43,1.48,4.73,4.73,0,0,0,0,4.39,3.87,3.87,0,0,0,1.43,1.49,3.72,3.72,0,0,0,3.86,0Z" fill="#3e9920"/></g><g style="isolation:isolate"><path d="M138,13.27h3.69V33.44H138Z" fill="#3e9920"/></g><g style="isolation:isolate"><path d="M145.83,32.55A4.52,4.52,0,0,1,144.36,29a4.39,4.39,0,0,1,.76-2.53,4.88,4.88,0,0,1,2.09-1.69,7,7,0,0,1,2.92-.59,9.89,9.89,0,0,1,3.81.65v-.62a2.38,2.38,0,0,0-.89-1.92,3.62,3.62,0,0,0-2.38-.73,4.37,4.37,0,0,0-2,.46,4.54,4.54,0,0,0-1.56,1.23l-2.37-1.86a6.93,6.93,0,0,1,2.62-2.08,8,8,0,0,1,3.44-.74,7.29,7.29,0,0,1,5,1.53,5.59,5.59,0,0,1,1.72,4.44v8.85h-3.63V32h-.23a4.75,4.75,0,0,1-1.7,1.38,5.85,5.85,0,0,1-6.18-.8ZM153,30a3.46,3.46,0,0,0,.95-2.41,7,7,0,0,0-3-.68c-1.91,0-2.87.72-2.87,2.14a1.85,1.85,0,0,0,.62,1.43,2.6,2.6,0,0,0,1.77.54A3.31,3.31,0,0,0,153,30Z" fill="#3e9920"/></g><g style="isolation:isolate"><path d="M165.21,32.76l-6.06-13.69h4.2L167.07,28h.22l3.58-8.93H175l-8.87,20.45h-4Z" fill="#3e9920"/></g></g><path d="M10.13,22H2.54V29.6A7.59,7.59,0,1,0,10.13,22" fill="#262626"/><path d="M26.51,4.8H10.06a7.53,7.53,0,0,0-7.52,7.52V20H18.93a7.58,7.58,0,0,0,7.58-7.59Z" fill="#3e9920"/></svg>